<?xml version="1.0" encoding="utf-8"?>
<!-- Generator: Adobe Illustrator 17.1.0, SVG Export Plug-In . SVG Version: 6.00 Build 0)  -->
<!DOCTYPE svg PUBLIC "-//W3C//DTD SVG 1.1//EN" "http://www.w3.org/Graphics/SVG/1.1/DTD/svg11.dtd">
<svg version="1.1" id="Layer_1" xmlns="http://www.w3.org/2000/svg" xmlns:xlink="http://www.w3.org/1999/xlink" x="0px" y="0px"
	 viewBox="0 0 728 338" enable-background="new 0 0 728 338" xml:space="preserve">
<g enable-background="new    ">
	<path fill="#FFFFFF" d="M130.3,52.9H0V33.7h130.4V52.9z M130.3,88.9H0V70h130.4V88.9z M0,249v18.9h130.4V249H0z M130.3,285v19.2H0
		V285H130.3z M92.5,125.1H36.2v-19.2h56.3V125.1z M92.5,160.5H36.2v-19.2h56.3V160.5z M92.5,196.5v-19.2h-56v19.2H92.5z M92.5,232.8
		h-56v-19.2h56V232.8z M290.4,33.7c17.5,1.6,32.3,8,44.4,19.2H147.4V33.7H290.4z M349.4,70c3.6,9.2,5.4,15.5,5.4,18.9H147.4V70
		H349.4z M355.6,249c-1.1,5-1.8,8.4-2.2,10c-1.3,3.8-2.9,6.8-4.9,8.9H147.4V249H355.6z M147.4,285h188.5
		c-13.3,12.8-29.5,19.2-48.4,19.2H147.4V285z M241,125.1h-56v-19.2h56V125.1z M185,141.3h160.6c-4.1,7.4-9.5,13.8-16,19.2H185V141.3
		z M185,177.3h144.4c6.5,5.4,12.3,11.8,17.3,19.2H185V177.3z M185,232.8v-19.2h56.8v19.2H185z M356.7,105.9c0,7.4-1,13.8-3,19.2
		h-56.8v-19.2H356.7z M354.5,213.6c1.6,3.2,2.8,9.6,3.5,19.2h-60v-19.2H354.5z M372.7,33.7h100.6l6.8,19.2H372.7V33.7z M492.7,89.2
		H372.7V70H486L492.7,89.2z M464.3,267.9h-91.7V249h91.7V267.9z M464.3,304.2h-91.7V285h91.7V304.2z M498.7,105.9l7,19.2h-96.5
		v-19.2H498.7z M464.3,145.9v14.6h-55.2v-19.2h102.2l6.8,19.2h-48.7L464.3,145.9z M464.3,177.3h-55.2v19.2h55.2c0,0.7,0-0.9,0-4.7
		c0-3.9,0-7,0-9.3C464.3,181.4,464.3,179.7,464.3,177.3z M464.3,232.8h-55.2v-19.2h55.2V232.8z M567.1,177.3
		c-2.2,6.5-4.4,12.9-6.8,19.2h-78.2l-6.8-19.2H567.1z M547.6,232.8c4.1-11.9,6.4-18.3,6.8-19.2h-66.3c-0.2,0,2.1,6.4,6.8,19.2
		C532.9,232.8,550.5,232.8,547.6,232.8z M535.2,267.9h-28.1l-6.5-18.9h41.1L535.2,267.9z M522.5,304.2h-2.4l-6.8-19.2h16
		L522.5,304.2z M530.1,141.3h102.8v19.2h-54.6c0,0.2,0-0.4,0-1.9c0-7.2,0-11.4,0-12.7l-5.1,14.6h-49.5L530.1,141.3z M542.5,105.9
		l-6.8,19.2h97.1v-19.2H542.5z M669.9,89.2H548.7c4-11.9,6.1-18.3,6.5-19.2h114.7V89.2z M669.9,52.9H561.2l7-19.2h101.7V52.9z
		 M632.8,196.5h-54.6v-18.9h54.6V196.5z M632.8,232.8h-54.6v-19.2h54.6V232.8z M669.9,267.9h-91.7V249h91.7V267.9z M669.9,304.2
		h-91.7V285h91.7V304.2z M690.2,285.2c0-5.2,1.8-9.6,5.5-13.3c3.7-3.6,8.1-5.4,13.1-5.4c5.2,0,9.6,1.8,13.3,5.4
		c3.6,3.6,5.4,8,5.4,13.3c0,5-1.8,9.4-5.4,13c-3.6,3.6-8,5.4-13.3,5.4c-5,0-9.4-1.8-13.1-5.4C692,294.6,690.2,290.3,690.2,285.2z
		 M724.5,285.2c0-4.7-1.5-8.6-4.5-11.6c-3-3.1-6.7-4.6-11.2-4.6c-4.5,0-8.2,1.5-11.2,4.6c-3,3.1-4.5,6.9-4.5,11.6
		c0,4.5,1.5,8.3,4.5,11.4c3,3.1,6.7,4.6,11.2,4.6c4.5,0,8.2-1.5,11.2-4.6C723,293.5,724.5,289.7,724.5,285.2z M718,295.5h-3
		l-5.9-9.5h-4.6v9.5h-2.4v-20.8h8.9c4.9,0,7.3,1.9,7.3,5.7c0,3.6-2.2,5.5-6.5,5.7L718,295.5z M708.3,283.9c4.9,0,7.3-1.3,7.3-3.8
		c0-2.3-1.7-3.5-5.1-3.5h-6v7.3H708.3z"/>
</g>
</svg>
