<?xml version="1.0" encoding="utf-8"?>
<!-- Generator: Adobe Illustrator 18.1.1, SVG Export Plug-In . SVG Version: 6.00 Build 0)  -->
<!DOCTYPE svg PUBLIC "-//W3C//DTD SVG 1.1//EN" "http://www.w3.org/Graphics/SVG/1.1/DTD/svg11.dtd">
<svg version="1.1" id="Layer_1" xmlns="http://www.w3.org/2000/svg" xmlns:xlink="http://www.w3.org/1999/xlink" x="0px" y="0px"
	 viewBox="-707 389 24 24" enable-background="new -707 389 24 24" xml:space="preserve">
<g id="Background" display="none">
	<rect x="-707" y="389" display="inline" fill="#F0F0F0" width="24" height="24"/>
</g>
<g id="Icon">
	<g>
		<circle fill="#FFFFFF" cx="-695" cy="397" r="7"/>
	</g>
	<path fill="#FFFFFF" d="M-689,406h-12c-1.6,0-3,1.4-3,3v3h18v-3C-686,407.4-687.4,406-689,406z"/>
	<g>
		<circle fill="#FFFFFF" cx="-695" cy="397" r="7"/>
	</g>
	<path fill="#FFFFFF" d="M-689,406h-12c-1.6,0-3,1.4-3,3v3h18v-3C-686,407.4-687.4,406-689,406z"/>
</g>
<g id="Guide" display="none">
	<g display="inline">
		<path fill="#FFCCCC" d="M-684,390v22h-22v-22H-684 M-683,389h-24v24h24V389L-683,389z"/>
	</g>
</g>
</svg>
