<?xml version="1.0" encoding="utf-8"?>
<!-- Generator: Adobe Illustrator 17.1.0, SVG Export Plug-In . SVG Version: 6.00 Build 0)  -->
<!DOCTYPE svg PUBLIC "-//W3C//DTD SVG 1.1//EN" "http://www.w3.org/Graphics/SVG/1.1/DTD/svg11.dtd">
<svg version="1.1" xmlns="http://www.w3.org/2000/svg" xmlns:xlink="http://www.w3.org/1999/xlink" x="0px" y="0px"
	 viewBox="0 0 487.9 487.9" enable-background="new 0 0 487.9 487.9" xml:space="preserve">
<g id="MainThing">
	<path fill="#FFFFFF" d="M350.9,336.1c0,6.6-5.4,12-12,12h-189c-6.6,0-12-5.4-12-12v-189c0-6.6,5.4-12,12-12h189c6.6,0,12,5.4,12,12
		V336.1z M282.9,241.1c0-21-17-38-38-38s-38,17-38,38s17,38,38,38S282.9,262.1,282.9,241.1z"/>
</g>
<g id="TopSpines">
	<path fill="#FFFFFF" d="M253.9,186.6c0,4.7-3.8,8.5-8.5,8.5l0,0c-4.7,0-8.5-3.8-8.5-8.5v-103c0-4.7,3.8-8.5,8.5-8.5l0,0
		c4.7,0,8.5,3.8,8.5,8.5V186.6z M307.9,83.6c0-4.7-3.8-8.5-8.5-8.5l0,0c-4.7,0-8.5,3.8-8.5,8.5v103c0,4.7,3.8,8.5,8.5,8.5l0,0
		c4.7,0,8.5-3.8,8.5-8.5V83.6z M199.9,83.6c0-4.7-3.8-8.5-8.5-8.5l0,0c-4.7,0-8.5,3.8-8.5,8.5v103c0,4.7,3.8,8.5,8.5,8.5l0,0
		c4.7,0,8.5-3.8,8.5-8.5V83.6z"/>
	<path fill="#FFFFFF" d="M252.9,398.6c0,4.7-3.8,8.5-8.5,8.5l0,0c-4.7,0-8.5-3.8-8.5-8.5v-103c0-4.7,3.8-8.5,8.5-8.5l0,0
		c4.7,0,8.5,3.8,8.5,8.5V398.6z M306.9,295.6c0-4.7-3.8-8.5-8.5-8.5l0,0c-4.7,0-8.5,3.8-8.5,8.5v103c0,4.7,3.8,8.5,8.5,8.5l0,0
		c4.7,0,8.5-3.8,8.5-8.5V295.6z M198.9,295.6c0-4.7-3.8-8.5-8.5-8.5l0,0c-4.7,0-8.5,3.8-8.5,8.5v103c0,4.7,3.8,8.5,8.5,8.5l0,0
		c4.7,0,8.5-3.8,8.5-8.5V295.6z"/>
	<path fill="#FFFFFF" d="M410.9,243.6c0,4.7-3.8,8.5-8.5,8.5h-103c-4.7,0-8.5-3.8-8.5-8.5l0,0c0-4.7,3.8-8.5,8.5-8.5h103
		C407.1,235.1,410.9,238.9,410.9,243.6L410.9,243.6z M410.9,189.6c0-4.7-3.8-8.5-8.5-8.5h-103c-4.7,0-8.5,3.8-8.5,8.5l0,0
		c0,4.7,3.8,8.5,8.5,8.5h103C407.1,198.1,410.9,194.3,410.9,189.6L410.9,189.6z M410.9,297.6c0-4.7-3.8-8.5-8.5-8.5h-103
		c-4.7,0-8.5,3.8-8.5,8.5l0,0c0,4.7,3.8,8.5,8.5,8.5h103C407.1,306.1,410.9,302.3,410.9,297.6L410.9,297.6z"/>
	<path fill="#FFFFFF" d="M197.9,243.6c0,4.7-3.8,8.5-8.5,8.5h-103c-4.7,0-8.5-3.8-8.5-8.5l0,0c0-4.7,3.8-8.5,8.5-8.5h103
		C194.1,235.1,197.9,238.9,197.9,243.6L197.9,243.6z M197.9,189.6c0-4.7-3.8-8.5-8.5-8.5h-103c-4.7,0-8.5,3.8-8.5,8.5l0,0
		c0,4.7,3.8,8.5,8.5,8.5h103C194.1,198.1,197.9,194.3,197.9,189.6L197.9,189.6z M197.9,297.6c0-4.7-3.8-8.5-8.5-8.5h-103
		c-4.7,0-8.5,3.8-8.5,8.5l0,0c0,4.7,3.8,8.5,8.5,8.5h103C194.1,306.1,197.9,302.3,197.9,297.6L197.9,297.6z"/>
</g>
<g id="Layer_4">
	<circle fill="none" stroke="#00B2EF" stroke-width="20" stroke-miterlimit="10" cx="243.9" cy="243.9" r="233.9"/>
</g>
</svg>
